<svg xmlns="http://www.w3.org/2000/svg" viewBox="0 0 211.36 17.78"><defs><style>.cls-1{fill:#25769f;}</style></defs><title>logo</title><g id="Calque_2" data-name="Calque 2"><g id="Calque_1-2" data-name="Calque 1"><path class="cls-1" d="M55.77.09V3.2H46.12c-.69,0-1.39,0-2.08,0-2,.07-2.22.25-3.17,2.39a2.41,2.41,0,0,0,2.71,1.78c2.16-.07,4.33.06,6.48,0a6.6,6.6,0,0,1,6.38,3.11,24.81,24.81,0,0,0,0,2.58c.3,3-1.72,4.48-4.36,4.64-4.05.23-8.12.06-12.18.06H38V14.86a21.32,21.32,0,0,1,2.28-.24c3.45,0,6.91,0,10.37,0,2.15,0,2.42-.28,3.22-2.63a3.94,3.94,0,0,0-3.81-2c-3,0-6,0-9.12,0C39.44,9,38.07,7.87,37.79,6c-.43-2.91.8-5.59,4.59-5.87C46.75-.15,51.16.09,55.77.09Z"/><path class="cls-1" d="M174.85,17.71l-.14-2.94H188.3c2-.91,2.28-2.11,1.69-4.06a17.37,17.37,0,0,0-3.15-.72,48.1,48.1,0,0,0-7,0c-3.06.28-5.56-1.77-5.13-5.18a13.66,13.66,0,0,0,0-1.57,6.18,6.18,0,0,1,6-3.17c3.79.07,7.57,0,11.51,0L192.39,3h-12.6c-2,1-2.32,2.25-1.53,4.12.73.07,1.55.19,2.38.2,2.59,0,5.19,0,7.78,0a4.89,4.89,0,0,1,4.79,3.26,5.36,5.36,0,0,1-1.69,6.07,4,4,0,0,1-2.06,1C184.64,17.74,179.82,17.71,174.85,17.71Z"/><path class="cls-1" d="M59.23.09c4.52,0,8.84-.15,13.14.05,2.83.14,4.89,1.59,5.71,5.93.48,2.5-1.48,5.54-4.09,6.43-3.11,1.07-6.29.36-9.62.54l-.18-3c2.17,0,4.21-.12,6.24-.07a4.43,4.43,0,0,0,4.1-1.89V5.15a3.91,3.91,0,0,0-3.78-2c-2.73,0-5.47,0-8.54,0-.15,5,0,9.61-.1,14.38l-2.88.15Z"/><path class="cls-1" d="M90.38,4.4,82.53,17.59H78.92L89.32.17h2.17l10.38,17.31H98.13l-2.46-3.91H87.43l1.23-2.63h5.42Z"/><path class="cls-1" d="M136.72.38c1.55-.61,2.42-.12,3,.85,3.2,5.34,6.36,10.7,9.68,16.31h-3.68l-2.55-4h-8.33l1.72-2.65h5.13l-3.81-6.39L130,17.65h-3.64Z"/><path class="cls-1" d="M109.4,3.18h-6.59V.24h16.27l.15,2.9h-6.68V17.59l-3.15.14Z"/><path class="cls-1" d="M201.76,17.55V3.29h-6.64V.2h16.24V3.12h-6.45V17.55Z"/><path class="cls-1" d="M0,17.54V.32H2.93V14.55H14.75l.15,3Z"/><path class="cls-1" d="M151.57.22h2.86V14.51h11.82V17.6H151.57Z"/><path class="cls-1" d="M31,.18h4.8L24.46,8.76,35.8,17.53c-2.84.47-5,.23-6.91-1.64a77.64,77.64,0,0,0-6.28-5c-.68-.53-1.39-1-2.24-1.63A14.39,14.39,0,0,1,22.21,7C25.1,4.64,28.05,2.42,31,.18Z"/><path class="cls-1" d="M17.14.18h2.92c.09,2.91,0,5.8,0,8.68s0,5.68,0,8.76l-3,.13Z"/><path class="cls-1" d="M124.21,17.6h-2.78V.22h2.78Z"/><path class="cls-1" d="M168.68.21h2.79V17.59l-2.79.15Z"/></g></g></svg>